<mxfile host="Electron" agent="Mozilla/5.0 (Windows NT 10.0; Win64; x64) AppleWebKit/537.36 (KHTML, like Gecko) draw.io/28.1.2 Chrome/138.0.7204.243 Electron/37.4.0 Safari/537.36" version="28.1.2">
  <diagram name="Page-1" id="fe6lprZABVak5deHXj3h">
    <mxGraphModel dx="1842" dy="596" grid="1" gridSize="10" guides="1" tooltips="1" connect="1" arrows="1" fold="1" page="1" pageScale="1" pageWidth="850" pageHeight="1100" math="0" shadow="0">
      <root>
        <mxCell id="0" />
        <mxCell id="1" parent="0" />
        <mxCell id="3D6HXVsp6RhquHempZrH-1" value="&lt;font style=&quot;font-size: 20px;&quot;&gt;&lt;b style=&quot;&quot;&gt;Data Mart &lt;/b&gt;(Star Schema)&lt;/font&gt;" style="text;html=1;align=center;verticalAlign=middle;resizable=0;points=[];autosize=1;strokeColor=none;fillColor=none;" vertex="1" parent="1">
          <mxGeometry x="-50" y="220" width="250" height="36" as="geometry" />
        </mxCell>
        <mxCell id="3D6HXVsp6RhquHempZrH-2" value="gold.dim_customers" style="shape=table;startSize=30;container=1;collapsible=1;childLayout=tableLayout;fixedRows=1;rowLines=0;fontStyle=1;align=center;resizeLast=1;html=1;rounded=1;fillColor=#fff2cc;strokeColor=#d6b656;fontSize=16;" vertex="1" parent="1">
          <mxGeometry x="80" y="400" width="180" height="510" as="geometry" />
        </mxCell>
        <mxCell id="3D6HXVsp6RhquHempZrH-3" value="" style="shape=tableRow;horizontal=0;startSize=0;swimlaneHead=0;swimlaneBody=0;fillColor=none;collapsible=0;dropTarget=0;points=[[0,0.5],[1,0.5]];portConstraint=eastwest;top=0;left=0;right=0;bottom=1;" vertex="1" parent="3D6HXVsp6RhquHempZrH-2">
          <mxGeometry y="30" width="180" height="48" as="geometry" />
        </mxCell>
        <mxCell id="3D6HXVsp6RhquHempZrH-4" value="PK" style="shape=partialRectangle;connectable=0;fillColor=none;top=0;left=0;bottom=0;right=0;fontStyle=1;overflow=hidden;whiteSpace=wrap;html=1;fontSize=16;" vertex="1" parent="3D6HXVsp6RhquHempZrH-3">
          <mxGeometry width="30" height="48" as="geometry">
            <mxRectangle width="30" height="48" as="alternateBounds" />
          </mxGeometry>
        </mxCell>
        <mxCell id="3D6HXVsp6RhquHempZrH-5" value="customer_key" style="shape=partialRectangle;connectable=0;fillColor=none;top=0;left=0;bottom=0;right=0;align=left;spacingLeft=6;fontStyle=5;overflow=hidden;whiteSpace=wrap;html=1;fontSize=16;" vertex="1" parent="3D6HXVsp6RhquHempZrH-3">
          <mxGeometry x="30" width="150" height="48" as="geometry">
            <mxRectangle width="150" height="48" as="alternateBounds" />
          </mxGeometry>
        </mxCell>
        <mxCell id="3D6HXVsp6RhquHempZrH-6" value="" style="shape=tableRow;horizontal=0;startSize=0;swimlaneHead=0;swimlaneBody=0;fillColor=none;collapsible=0;dropTarget=0;points=[[0,0.5],[1,0.5]];portConstraint=eastwest;top=0;left=0;right=0;bottom=0;" vertex="1" parent="3D6HXVsp6RhquHempZrH-2">
          <mxGeometry y="78" width="180" height="48" as="geometry" />
        </mxCell>
        <mxCell id="3D6HXVsp6RhquHempZrH-7" value="" style="shape=partialRectangle;connectable=0;fillColor=none;top=0;left=0;bottom=0;right=0;editable=1;overflow=hidden;whiteSpace=wrap;html=1;" vertex="1" parent="3D6HXVsp6RhquHempZrH-6">
          <mxGeometry width="30" height="48" as="geometry">
            <mxRectangle width="30" height="48" as="alternateBounds" />
          </mxGeometry>
        </mxCell>
        <mxCell id="3D6HXVsp6RhquHempZrH-8" value="customer_id" style="shape=partialRectangle;connectable=0;fillColor=none;top=0;left=0;bottom=0;right=0;align=left;spacingLeft=6;overflow=hidden;whiteSpace=wrap;html=1;fontSize=16;" vertex="1" parent="3D6HXVsp6RhquHempZrH-6">
          <mxGeometry x="30" width="150" height="48" as="geometry">
            <mxRectangle width="150" height="48" as="alternateBounds" />
          </mxGeometry>
        </mxCell>
        <mxCell id="3D6HXVsp6RhquHempZrH-9" value="" style="shape=tableRow;horizontal=0;startSize=0;swimlaneHead=0;swimlaneBody=0;fillColor=none;collapsible=0;dropTarget=0;points=[[0,0.5],[1,0.5]];portConstraint=eastwest;top=0;left=0;right=0;bottom=0;" vertex="1" parent="3D6HXVsp6RhquHempZrH-2">
          <mxGeometry y="126" width="180" height="48" as="geometry" />
        </mxCell>
        <mxCell id="3D6HXVsp6RhquHempZrH-10" value="" style="shape=partialRectangle;connectable=0;fillColor=none;top=0;left=0;bottom=0;right=0;editable=1;overflow=hidden;whiteSpace=wrap;html=1;" vertex="1" parent="3D6HXVsp6RhquHempZrH-9">
          <mxGeometry width="30" height="48" as="geometry">
            <mxRectangle width="30" height="48" as="alternateBounds" />
          </mxGeometry>
        </mxCell>
        <mxCell id="3D6HXVsp6RhquHempZrH-11" value="customer_number" style="shape=partialRectangle;connectable=0;fillColor=none;top=0;left=0;bottom=0;right=0;align=left;spacingLeft=6;overflow=hidden;whiteSpace=wrap;html=1;fontSize=16;" vertex="1" parent="3D6HXVsp6RhquHempZrH-9">
          <mxGeometry x="30" width="150" height="48" as="geometry">
            <mxRectangle width="150" height="48" as="alternateBounds" />
          </mxGeometry>
        </mxCell>
        <mxCell id="3D6HXVsp6RhquHempZrH-12" value="" style="shape=tableRow;horizontal=0;startSize=0;swimlaneHead=0;swimlaneBody=0;fillColor=none;collapsible=0;dropTarget=0;points=[[0,0.5],[1,0.5]];portConstraint=eastwest;top=0;left=0;right=0;bottom=0;" vertex="1" parent="3D6HXVsp6RhquHempZrH-2">
          <mxGeometry y="174" width="180" height="48" as="geometry" />
        </mxCell>
        <mxCell id="3D6HXVsp6RhquHempZrH-13" value="" style="shape=partialRectangle;connectable=0;fillColor=none;top=0;left=0;bottom=0;right=0;editable=1;overflow=hidden;whiteSpace=wrap;html=1;" vertex="1" parent="3D6HXVsp6RhquHempZrH-12">
          <mxGeometry width="30" height="48" as="geometry">
            <mxRectangle width="30" height="48" as="alternateBounds" />
          </mxGeometry>
        </mxCell>
        <mxCell id="3D6HXVsp6RhquHempZrH-14" value="first_name" style="shape=partialRectangle;connectable=0;fillColor=none;top=0;left=0;bottom=0;right=0;align=left;spacingLeft=6;overflow=hidden;whiteSpace=wrap;html=1;fontSize=16;" vertex="1" parent="3D6HXVsp6RhquHempZrH-12">
          <mxGeometry x="30" width="150" height="48" as="geometry">
            <mxRectangle width="150" height="48" as="alternateBounds" />
          </mxGeometry>
        </mxCell>
        <mxCell id="3D6HXVsp6RhquHempZrH-15" style="shape=tableRow;horizontal=0;startSize=0;swimlaneHead=0;swimlaneBody=0;fillColor=none;collapsible=0;dropTarget=0;points=[[0,0.5],[1,0.5]];portConstraint=eastwest;top=0;left=0;right=0;bottom=0;" vertex="1" parent="3D6HXVsp6RhquHempZrH-2">
          <mxGeometry y="222" width="180" height="48" as="geometry" />
        </mxCell>
        <mxCell id="3D6HXVsp6RhquHempZrH-16" style="shape=partialRectangle;connectable=0;fillColor=none;top=0;left=0;bottom=0;right=0;editable=1;overflow=hidden;whiteSpace=wrap;html=1;" vertex="1" parent="3D6HXVsp6RhquHempZrH-15">
          <mxGeometry width="30" height="48" as="geometry">
            <mxRectangle width="30" height="48" as="alternateBounds" />
          </mxGeometry>
        </mxCell>
        <mxCell id="3D6HXVsp6RhquHempZrH-17" value="last_name" style="shape=partialRectangle;connectable=0;fillColor=none;top=0;left=0;bottom=0;right=0;align=left;spacingLeft=6;overflow=hidden;whiteSpace=wrap;html=1;fontSize=16;" vertex="1" parent="3D6HXVsp6RhquHempZrH-15">
          <mxGeometry x="30" width="150" height="48" as="geometry">
            <mxRectangle width="150" height="48" as="alternateBounds" />
          </mxGeometry>
        </mxCell>
        <mxCell id="3D6HXVsp6RhquHempZrH-18" style="shape=tableRow;horizontal=0;startSize=0;swimlaneHead=0;swimlaneBody=0;fillColor=none;collapsible=0;dropTarget=0;points=[[0,0.5],[1,0.5]];portConstraint=eastwest;top=0;left=0;right=0;bottom=0;" vertex="1" parent="3D6HXVsp6RhquHempZrH-2">
          <mxGeometry y="270" width="180" height="48" as="geometry" />
        </mxCell>
        <mxCell id="3D6HXVsp6RhquHempZrH-19" style="shape=partialRectangle;connectable=0;fillColor=none;top=0;left=0;bottom=0;right=0;editable=1;overflow=hidden;whiteSpace=wrap;html=1;" vertex="1" parent="3D6HXVsp6RhquHempZrH-18">
          <mxGeometry width="30" height="48" as="geometry">
            <mxRectangle width="30" height="48" as="alternateBounds" />
          </mxGeometry>
        </mxCell>
        <mxCell id="3D6HXVsp6RhquHempZrH-20" value="country" style="shape=partialRectangle;connectable=0;fillColor=none;top=0;left=0;bottom=0;right=0;align=left;spacingLeft=6;overflow=hidden;whiteSpace=wrap;html=1;fontSize=16;" vertex="1" parent="3D6HXVsp6RhquHempZrH-18">
          <mxGeometry x="30" width="150" height="48" as="geometry">
            <mxRectangle width="150" height="48" as="alternateBounds" />
          </mxGeometry>
        </mxCell>
        <mxCell id="3D6HXVsp6RhquHempZrH-21" style="shape=tableRow;horizontal=0;startSize=0;swimlaneHead=0;swimlaneBody=0;fillColor=none;collapsible=0;dropTarget=0;points=[[0,0.5],[1,0.5]];portConstraint=eastwest;top=0;left=0;right=0;bottom=0;" vertex="1" parent="3D6HXVsp6RhquHempZrH-2">
          <mxGeometry y="318" width="180" height="48" as="geometry" />
        </mxCell>
        <mxCell id="3D6HXVsp6RhquHempZrH-22" style="shape=partialRectangle;connectable=0;fillColor=none;top=0;left=0;bottom=0;right=0;editable=1;overflow=hidden;whiteSpace=wrap;html=1;" vertex="1" parent="3D6HXVsp6RhquHempZrH-21">
          <mxGeometry width="30" height="48" as="geometry">
            <mxRectangle width="30" height="48" as="alternateBounds" />
          </mxGeometry>
        </mxCell>
        <mxCell id="3D6HXVsp6RhquHempZrH-23" value="marital_status" style="shape=partialRectangle;connectable=0;fillColor=none;top=0;left=0;bottom=0;right=0;align=left;spacingLeft=6;overflow=hidden;whiteSpace=wrap;html=1;fontSize=16;" vertex="1" parent="3D6HXVsp6RhquHempZrH-21">
          <mxGeometry x="30" width="150" height="48" as="geometry">
            <mxRectangle width="150" height="48" as="alternateBounds" />
          </mxGeometry>
        </mxCell>
        <mxCell id="3D6HXVsp6RhquHempZrH-24" style="shape=tableRow;horizontal=0;startSize=0;swimlaneHead=0;swimlaneBody=0;fillColor=none;collapsible=0;dropTarget=0;points=[[0,0.5],[1,0.5]];portConstraint=eastwest;top=0;left=0;right=0;bottom=0;" vertex="1" parent="3D6HXVsp6RhquHempZrH-2">
          <mxGeometry y="366" width="180" height="48" as="geometry" />
        </mxCell>
        <mxCell id="3D6HXVsp6RhquHempZrH-25" style="shape=partialRectangle;connectable=0;fillColor=none;top=0;left=0;bottom=0;right=0;editable=1;overflow=hidden;whiteSpace=wrap;html=1;" vertex="1" parent="3D6HXVsp6RhquHempZrH-24">
          <mxGeometry width="30" height="48" as="geometry">
            <mxRectangle width="30" height="48" as="alternateBounds" />
          </mxGeometry>
        </mxCell>
        <mxCell id="3D6HXVsp6RhquHempZrH-26" value="gender" style="shape=partialRectangle;connectable=0;fillColor=none;top=0;left=0;bottom=0;right=0;align=left;spacingLeft=6;overflow=hidden;whiteSpace=wrap;html=1;fontSize=16;" vertex="1" parent="3D6HXVsp6RhquHempZrH-24">
          <mxGeometry x="30" width="150" height="48" as="geometry">
            <mxRectangle width="150" height="48" as="alternateBounds" />
          </mxGeometry>
        </mxCell>
        <mxCell id="3D6HXVsp6RhquHempZrH-28" style="shape=tableRow;horizontal=0;startSize=0;swimlaneHead=0;swimlaneBody=0;fillColor=none;collapsible=0;dropTarget=0;points=[[0,0.5],[1,0.5]];portConstraint=eastwest;top=0;left=0;right=0;bottom=0;" vertex="1" parent="3D6HXVsp6RhquHempZrH-2">
          <mxGeometry y="414" width="180" height="48" as="geometry" />
        </mxCell>
        <mxCell id="3D6HXVsp6RhquHempZrH-29" style="shape=partialRectangle;connectable=0;fillColor=none;top=0;left=0;bottom=0;right=0;editable=1;overflow=hidden;whiteSpace=wrap;html=1;" vertex="1" parent="3D6HXVsp6RhquHempZrH-28">
          <mxGeometry width="30" height="48" as="geometry">
            <mxRectangle width="30" height="48" as="alternateBounds" />
          </mxGeometry>
        </mxCell>
        <mxCell id="3D6HXVsp6RhquHempZrH-30" value="birthdate" style="shape=partialRectangle;connectable=0;fillColor=none;top=0;left=0;bottom=0;right=0;align=left;spacingLeft=6;overflow=hidden;whiteSpace=wrap;html=1;fontSize=16;" vertex="1" parent="3D6HXVsp6RhquHempZrH-28">
          <mxGeometry x="30" width="150" height="48" as="geometry">
            <mxRectangle width="150" height="48" as="alternateBounds" />
          </mxGeometry>
        </mxCell>
        <mxCell id="3D6HXVsp6RhquHempZrH-31" style="shape=tableRow;horizontal=0;startSize=0;swimlaneHead=0;swimlaneBody=0;fillColor=none;collapsible=0;dropTarget=0;points=[[0,0.5],[1,0.5]];portConstraint=eastwest;top=0;left=0;right=0;bottom=0;" vertex="1" parent="3D6HXVsp6RhquHempZrH-2">
          <mxGeometry y="462" width="180" height="48" as="geometry" />
        </mxCell>
        <mxCell id="3D6HXVsp6RhquHempZrH-32" style="shape=partialRectangle;connectable=0;fillColor=none;top=0;left=0;bottom=0;right=0;editable=1;overflow=hidden;whiteSpace=wrap;html=1;" vertex="1" parent="3D6HXVsp6RhquHempZrH-31">
          <mxGeometry width="30" height="48" as="geometry">
            <mxRectangle width="30" height="48" as="alternateBounds" />
          </mxGeometry>
        </mxCell>
        <mxCell id="3D6HXVsp6RhquHempZrH-33" value="create_date" style="shape=partialRectangle;connectable=0;fillColor=none;top=0;left=0;bottom=0;right=0;align=left;spacingLeft=6;overflow=hidden;whiteSpace=wrap;html=1;fontSize=16;" vertex="1" parent="3D6HXVsp6RhquHempZrH-31">
          <mxGeometry x="30" width="150" height="48" as="geometry">
            <mxRectangle width="150" height="48" as="alternateBounds" />
          </mxGeometry>
        </mxCell>
        <mxCell id="3D6HXVsp6RhquHempZrH-34" value="gold.dim_products" style="shape=table;startSize=30;container=1;collapsible=1;childLayout=tableLayout;fixedRows=1;rowLines=0;fontStyle=1;align=center;resizeLast=1;html=1;rounded=1;fillColor=#fff2cc;strokeColor=#d6b656;fontSize=16;" vertex="1" parent="1">
          <mxGeometry x="680" y="400" width="180" height="558" as="geometry" />
        </mxCell>
        <mxCell id="3D6HXVsp6RhquHempZrH-35" value="" style="shape=tableRow;horizontal=0;startSize=0;swimlaneHead=0;swimlaneBody=0;fillColor=none;collapsible=0;dropTarget=0;points=[[0,0.5],[1,0.5]];portConstraint=eastwest;top=0;left=0;right=0;bottom=1;" vertex="1" parent="3D6HXVsp6RhquHempZrH-34">
          <mxGeometry y="30" width="180" height="48" as="geometry" />
        </mxCell>
        <mxCell id="3D6HXVsp6RhquHempZrH-36" value="PK" style="shape=partialRectangle;connectable=0;fillColor=none;top=0;left=0;bottom=0;right=0;fontStyle=1;overflow=hidden;whiteSpace=wrap;html=1;fontSize=16;" vertex="1" parent="3D6HXVsp6RhquHempZrH-35">
          <mxGeometry width="30" height="48" as="geometry">
            <mxRectangle width="30" height="48" as="alternateBounds" />
          </mxGeometry>
        </mxCell>
        <mxCell id="3D6HXVsp6RhquHempZrH-37" value="product_key" style="shape=partialRectangle;connectable=0;fillColor=none;top=0;left=0;bottom=0;right=0;align=left;spacingLeft=6;fontStyle=5;overflow=hidden;whiteSpace=wrap;html=1;fontSize=16;" vertex="1" parent="3D6HXVsp6RhquHempZrH-35">
          <mxGeometry x="30" width="150" height="48" as="geometry">
            <mxRectangle width="150" height="48" as="alternateBounds" />
          </mxGeometry>
        </mxCell>
        <mxCell id="3D6HXVsp6RhquHempZrH-38" value="" style="shape=tableRow;horizontal=0;startSize=0;swimlaneHead=0;swimlaneBody=0;fillColor=none;collapsible=0;dropTarget=0;points=[[0,0.5],[1,0.5]];portConstraint=eastwest;top=0;left=0;right=0;bottom=0;" vertex="1" parent="3D6HXVsp6RhquHempZrH-34">
          <mxGeometry y="78" width="180" height="48" as="geometry" />
        </mxCell>
        <mxCell id="3D6HXVsp6RhquHempZrH-39" value="" style="shape=partialRectangle;connectable=0;fillColor=none;top=0;left=0;bottom=0;right=0;editable=1;overflow=hidden;whiteSpace=wrap;html=1;" vertex="1" parent="3D6HXVsp6RhquHempZrH-38">
          <mxGeometry width="30" height="48" as="geometry">
            <mxRectangle width="30" height="48" as="alternateBounds" />
          </mxGeometry>
        </mxCell>
        <mxCell id="3D6HXVsp6RhquHempZrH-40" value="product_id" style="shape=partialRectangle;connectable=0;fillColor=none;top=0;left=0;bottom=0;right=0;align=left;spacingLeft=6;overflow=hidden;whiteSpace=wrap;html=1;fontSize=16;" vertex="1" parent="3D6HXVsp6RhquHempZrH-38">
          <mxGeometry x="30" width="150" height="48" as="geometry">
            <mxRectangle width="150" height="48" as="alternateBounds" />
          </mxGeometry>
        </mxCell>
        <mxCell id="3D6HXVsp6RhquHempZrH-41" value="" style="shape=tableRow;horizontal=0;startSize=0;swimlaneHead=0;swimlaneBody=0;fillColor=none;collapsible=0;dropTarget=0;points=[[0,0.5],[1,0.5]];portConstraint=eastwest;top=0;left=0;right=0;bottom=0;" vertex="1" parent="3D6HXVsp6RhquHempZrH-34">
          <mxGeometry y="126" width="180" height="48" as="geometry" />
        </mxCell>
        <mxCell id="3D6HXVsp6RhquHempZrH-42" value="" style="shape=partialRectangle;connectable=0;fillColor=none;top=0;left=0;bottom=0;right=0;editable=1;overflow=hidden;whiteSpace=wrap;html=1;" vertex="1" parent="3D6HXVsp6RhquHempZrH-41">
          <mxGeometry width="30" height="48" as="geometry">
            <mxRectangle width="30" height="48" as="alternateBounds" />
          </mxGeometry>
        </mxCell>
        <mxCell id="3D6HXVsp6RhquHempZrH-43" value="product_number" style="shape=partialRectangle;connectable=0;fillColor=none;top=0;left=0;bottom=0;right=0;align=left;spacingLeft=6;overflow=hidden;whiteSpace=wrap;html=1;fontSize=16;" vertex="1" parent="3D6HXVsp6RhquHempZrH-41">
          <mxGeometry x="30" width="150" height="48" as="geometry">
            <mxRectangle width="150" height="48" as="alternateBounds" />
          </mxGeometry>
        </mxCell>
        <mxCell id="3D6HXVsp6RhquHempZrH-44" value="" style="shape=tableRow;horizontal=0;startSize=0;swimlaneHead=0;swimlaneBody=0;fillColor=none;collapsible=0;dropTarget=0;points=[[0,0.5],[1,0.5]];portConstraint=eastwest;top=0;left=0;right=0;bottom=0;" vertex="1" parent="3D6HXVsp6RhquHempZrH-34">
          <mxGeometry y="174" width="180" height="48" as="geometry" />
        </mxCell>
        <mxCell id="3D6HXVsp6RhquHempZrH-45" value="" style="shape=partialRectangle;connectable=0;fillColor=none;top=0;left=0;bottom=0;right=0;editable=1;overflow=hidden;whiteSpace=wrap;html=1;" vertex="1" parent="3D6HXVsp6RhquHempZrH-44">
          <mxGeometry width="30" height="48" as="geometry">
            <mxRectangle width="30" height="48" as="alternateBounds" />
          </mxGeometry>
        </mxCell>
        <mxCell id="3D6HXVsp6RhquHempZrH-46" value="product_name" style="shape=partialRectangle;connectable=0;fillColor=none;top=0;left=0;bottom=0;right=0;align=left;spacingLeft=6;overflow=hidden;whiteSpace=wrap;html=1;fontSize=16;" vertex="1" parent="3D6HXVsp6RhquHempZrH-44">
          <mxGeometry x="30" width="150" height="48" as="geometry">
            <mxRectangle width="150" height="48" as="alternateBounds" />
          </mxGeometry>
        </mxCell>
        <mxCell id="3D6HXVsp6RhquHempZrH-47" style="shape=tableRow;horizontal=0;startSize=0;swimlaneHead=0;swimlaneBody=0;fillColor=none;collapsible=0;dropTarget=0;points=[[0,0.5],[1,0.5]];portConstraint=eastwest;top=0;left=0;right=0;bottom=0;" vertex="1" parent="3D6HXVsp6RhquHempZrH-34">
          <mxGeometry y="222" width="180" height="48" as="geometry" />
        </mxCell>
        <mxCell id="3D6HXVsp6RhquHempZrH-48" style="shape=partialRectangle;connectable=0;fillColor=none;top=0;left=0;bottom=0;right=0;editable=1;overflow=hidden;whiteSpace=wrap;html=1;" vertex="1" parent="3D6HXVsp6RhquHempZrH-47">
          <mxGeometry width="30" height="48" as="geometry">
            <mxRectangle width="30" height="48" as="alternateBounds" />
          </mxGeometry>
        </mxCell>
        <mxCell id="3D6HXVsp6RhquHempZrH-49" value="category_id" style="shape=partialRectangle;connectable=0;fillColor=none;top=0;left=0;bottom=0;right=0;align=left;spacingLeft=6;overflow=hidden;whiteSpace=wrap;html=1;fontSize=16;" vertex="1" parent="3D6HXVsp6RhquHempZrH-47">
          <mxGeometry x="30" width="150" height="48" as="geometry">
            <mxRectangle width="150" height="48" as="alternateBounds" />
          </mxGeometry>
        </mxCell>
        <mxCell id="3D6HXVsp6RhquHempZrH-50" style="shape=tableRow;horizontal=0;startSize=0;swimlaneHead=0;swimlaneBody=0;fillColor=none;collapsible=0;dropTarget=0;points=[[0,0.5],[1,0.5]];portConstraint=eastwest;top=0;left=0;right=0;bottom=0;" vertex="1" parent="3D6HXVsp6RhquHempZrH-34">
          <mxGeometry y="270" width="180" height="48" as="geometry" />
        </mxCell>
        <mxCell id="3D6HXVsp6RhquHempZrH-51" style="shape=partialRectangle;connectable=0;fillColor=none;top=0;left=0;bottom=0;right=0;editable=1;overflow=hidden;whiteSpace=wrap;html=1;" vertex="1" parent="3D6HXVsp6RhquHempZrH-50">
          <mxGeometry width="30" height="48" as="geometry">
            <mxRectangle width="30" height="48" as="alternateBounds" />
          </mxGeometry>
        </mxCell>
        <mxCell id="3D6HXVsp6RhquHempZrH-52" value="category" style="shape=partialRectangle;connectable=0;fillColor=none;top=0;left=0;bottom=0;right=0;align=left;spacingLeft=6;overflow=hidden;whiteSpace=wrap;html=1;fontSize=16;" vertex="1" parent="3D6HXVsp6RhquHempZrH-50">
          <mxGeometry x="30" width="150" height="48" as="geometry">
            <mxRectangle width="150" height="48" as="alternateBounds" />
          </mxGeometry>
        </mxCell>
        <mxCell id="3D6HXVsp6RhquHempZrH-53" style="shape=tableRow;horizontal=0;startSize=0;swimlaneHead=0;swimlaneBody=0;fillColor=none;collapsible=0;dropTarget=0;points=[[0,0.5],[1,0.5]];portConstraint=eastwest;top=0;left=0;right=0;bottom=0;" vertex="1" parent="3D6HXVsp6RhquHempZrH-34">
          <mxGeometry y="318" width="180" height="48" as="geometry" />
        </mxCell>
        <mxCell id="3D6HXVsp6RhquHempZrH-54" style="shape=partialRectangle;connectable=0;fillColor=none;top=0;left=0;bottom=0;right=0;editable=1;overflow=hidden;whiteSpace=wrap;html=1;" vertex="1" parent="3D6HXVsp6RhquHempZrH-53">
          <mxGeometry width="30" height="48" as="geometry">
            <mxRectangle width="30" height="48" as="alternateBounds" />
          </mxGeometry>
        </mxCell>
        <mxCell id="3D6HXVsp6RhquHempZrH-55" value="subcategory" style="shape=partialRectangle;connectable=0;fillColor=none;top=0;left=0;bottom=0;right=0;align=left;spacingLeft=6;overflow=hidden;whiteSpace=wrap;html=1;fontSize=16;" vertex="1" parent="3D6HXVsp6RhquHempZrH-53">
          <mxGeometry x="30" width="150" height="48" as="geometry">
            <mxRectangle width="150" height="48" as="alternateBounds" />
          </mxGeometry>
        </mxCell>
        <mxCell id="3D6HXVsp6RhquHempZrH-56" style="shape=tableRow;horizontal=0;startSize=0;swimlaneHead=0;swimlaneBody=0;fillColor=none;collapsible=0;dropTarget=0;points=[[0,0.5],[1,0.5]];portConstraint=eastwest;top=0;left=0;right=0;bottom=0;" vertex="1" parent="3D6HXVsp6RhquHempZrH-34">
          <mxGeometry y="366" width="180" height="48" as="geometry" />
        </mxCell>
        <mxCell id="3D6HXVsp6RhquHempZrH-57" style="shape=partialRectangle;connectable=0;fillColor=none;top=0;left=0;bottom=0;right=0;editable=1;overflow=hidden;whiteSpace=wrap;html=1;" vertex="1" parent="3D6HXVsp6RhquHempZrH-56">
          <mxGeometry width="30" height="48" as="geometry">
            <mxRectangle width="30" height="48" as="alternateBounds" />
          </mxGeometry>
        </mxCell>
        <mxCell id="3D6HXVsp6RhquHempZrH-58" value="maintenance" style="shape=partialRectangle;connectable=0;fillColor=none;top=0;left=0;bottom=0;right=0;align=left;spacingLeft=6;overflow=hidden;whiteSpace=wrap;html=1;fontSize=16;" vertex="1" parent="3D6HXVsp6RhquHempZrH-56">
          <mxGeometry x="30" width="150" height="48" as="geometry">
            <mxRectangle width="150" height="48" as="alternateBounds" />
          </mxGeometry>
        </mxCell>
        <mxCell id="3D6HXVsp6RhquHempZrH-59" style="shape=tableRow;horizontal=0;startSize=0;swimlaneHead=0;swimlaneBody=0;fillColor=none;collapsible=0;dropTarget=0;points=[[0,0.5],[1,0.5]];portConstraint=eastwest;top=0;left=0;right=0;bottom=0;" vertex="1" parent="3D6HXVsp6RhquHempZrH-34">
          <mxGeometry y="414" width="180" height="48" as="geometry" />
        </mxCell>
        <mxCell id="3D6HXVsp6RhquHempZrH-60" style="shape=partialRectangle;connectable=0;fillColor=none;top=0;left=0;bottom=0;right=0;editable=1;overflow=hidden;whiteSpace=wrap;html=1;" vertex="1" parent="3D6HXVsp6RhquHempZrH-59">
          <mxGeometry width="30" height="48" as="geometry">
            <mxRectangle width="30" height="48" as="alternateBounds" />
          </mxGeometry>
        </mxCell>
        <mxCell id="3D6HXVsp6RhquHempZrH-61" value="cost" style="shape=partialRectangle;connectable=0;fillColor=none;top=0;left=0;bottom=0;right=0;align=left;spacingLeft=6;overflow=hidden;whiteSpace=wrap;html=1;fontSize=16;" vertex="1" parent="3D6HXVsp6RhquHempZrH-59">
          <mxGeometry x="30" width="150" height="48" as="geometry">
            <mxRectangle width="150" height="48" as="alternateBounds" />
          </mxGeometry>
        </mxCell>
        <mxCell id="3D6HXVsp6RhquHempZrH-62" style="shape=tableRow;horizontal=0;startSize=0;swimlaneHead=0;swimlaneBody=0;fillColor=none;collapsible=0;dropTarget=0;points=[[0,0.5],[1,0.5]];portConstraint=eastwest;top=0;left=0;right=0;bottom=0;" vertex="1" parent="3D6HXVsp6RhquHempZrH-34">
          <mxGeometry y="462" width="180" height="48" as="geometry" />
        </mxCell>
        <mxCell id="3D6HXVsp6RhquHempZrH-63" style="shape=partialRectangle;connectable=0;fillColor=none;top=0;left=0;bottom=0;right=0;editable=1;overflow=hidden;whiteSpace=wrap;html=1;" vertex="1" parent="3D6HXVsp6RhquHempZrH-62">
          <mxGeometry width="30" height="48" as="geometry">
            <mxRectangle width="30" height="48" as="alternateBounds" />
          </mxGeometry>
        </mxCell>
        <mxCell id="3D6HXVsp6RhquHempZrH-64" value="product_line" style="shape=partialRectangle;connectable=0;fillColor=none;top=0;left=0;bottom=0;right=0;align=left;spacingLeft=6;overflow=hidden;whiteSpace=wrap;html=1;fontSize=16;" vertex="1" parent="3D6HXVsp6RhquHempZrH-62">
          <mxGeometry x="30" width="150" height="48" as="geometry">
            <mxRectangle width="150" height="48" as="alternateBounds" />
          </mxGeometry>
        </mxCell>
        <mxCell id="3D6HXVsp6RhquHempZrH-65" style="shape=tableRow;horizontal=0;startSize=0;swimlaneHead=0;swimlaneBody=0;fillColor=none;collapsible=0;dropTarget=0;points=[[0,0.5],[1,0.5]];portConstraint=eastwest;top=0;left=0;right=0;bottom=0;" vertex="1" parent="3D6HXVsp6RhquHempZrH-34">
          <mxGeometry y="510" width="180" height="48" as="geometry" />
        </mxCell>
        <mxCell id="3D6HXVsp6RhquHempZrH-66" style="shape=partialRectangle;connectable=0;fillColor=none;top=0;left=0;bottom=0;right=0;editable=1;overflow=hidden;whiteSpace=wrap;html=1;" vertex="1" parent="3D6HXVsp6RhquHempZrH-65">
          <mxGeometry width="30" height="48" as="geometry">
            <mxRectangle width="30" height="48" as="alternateBounds" />
          </mxGeometry>
        </mxCell>
        <mxCell id="3D6HXVsp6RhquHempZrH-67" value="start_date" style="shape=partialRectangle;connectable=0;fillColor=none;top=0;left=0;bottom=0;right=0;align=left;spacingLeft=6;overflow=hidden;whiteSpace=wrap;html=1;fontSize=16;" vertex="1" parent="3D6HXVsp6RhquHempZrH-65">
          <mxGeometry x="30" width="150" height="48" as="geometry">
            <mxRectangle width="150" height="48" as="alternateBounds" />
          </mxGeometry>
        </mxCell>
        <mxCell id="3D6HXVsp6RhquHempZrH-68" value="gold.fact_sales" style="shape=table;startSize=30;container=1;collapsible=1;childLayout=tableLayout;fixedRows=1;rowLines=0;fontStyle=1;align=center;resizeLast=1;html=1;rounded=1;fillColor=#dae8fc;strokeColor=#6c8ebf;fontSize=16;" vertex="1" parent="1">
          <mxGeometry x="390" y="400" width="180" height="462" as="geometry" />
        </mxCell>
        <mxCell id="3D6HXVsp6RhquHempZrH-72" value="" style="shape=tableRow;horizontal=0;startSize=0;swimlaneHead=0;swimlaneBody=0;fillColor=none;collapsible=0;dropTarget=0;points=[[0,0.5],[1,0.5]];portConstraint=eastwest;top=0;left=0;right=0;bottom=0;" vertex="1" parent="3D6HXVsp6RhquHempZrH-68">
          <mxGeometry y="30" width="180" height="48" as="geometry" />
        </mxCell>
        <mxCell id="3D6HXVsp6RhquHempZrH-73" value="" style="shape=partialRectangle;connectable=0;fillColor=none;top=0;left=0;bottom=0;right=0;editable=1;overflow=hidden;whiteSpace=wrap;html=1;" vertex="1" parent="3D6HXVsp6RhquHempZrH-72">
          <mxGeometry width="40" height="48" as="geometry">
            <mxRectangle width="40" height="48" as="alternateBounds" />
          </mxGeometry>
        </mxCell>
        <mxCell id="3D6HXVsp6RhquHempZrH-74" value="order_number" style="shape=partialRectangle;connectable=0;fillColor=none;top=0;left=0;bottom=0;right=0;align=left;spacingLeft=6;overflow=hidden;whiteSpace=wrap;html=1;fontSize=16;" vertex="1" parent="3D6HXVsp6RhquHempZrH-72">
          <mxGeometry x="40" width="140" height="48" as="geometry">
            <mxRectangle width="140" height="48" as="alternateBounds" />
          </mxGeometry>
        </mxCell>
        <mxCell id="3D6HXVsp6RhquHempZrH-75" value="" style="shape=tableRow;horizontal=0;startSize=0;swimlaneHead=0;swimlaneBody=0;fillColor=none;collapsible=0;dropTarget=0;points=[[0,0.5],[1,0.5]];portConstraint=eastwest;top=0;left=0;right=0;bottom=0;" vertex="1" parent="3D6HXVsp6RhquHempZrH-68">
          <mxGeometry y="78" width="180" height="48" as="geometry" />
        </mxCell>
        <mxCell id="3D6HXVsp6RhquHempZrH-76" value="FK1" style="shape=partialRectangle;connectable=0;fillColor=none;top=0;left=0;bottom=0;right=0;editable=1;overflow=hidden;whiteSpace=wrap;html=1;" vertex="1" parent="3D6HXVsp6RhquHempZrH-75">
          <mxGeometry width="40" height="48" as="geometry">
            <mxRectangle width="40" height="48" as="alternateBounds" />
          </mxGeometry>
        </mxCell>
        <mxCell id="3D6HXVsp6RhquHempZrH-77" value="product_key" style="shape=partialRectangle;connectable=0;fillColor=none;top=0;left=0;bottom=0;right=0;align=left;spacingLeft=6;overflow=hidden;whiteSpace=wrap;html=1;fontSize=16;" vertex="1" parent="3D6HXVsp6RhquHempZrH-75">
          <mxGeometry x="40" width="140" height="48" as="geometry">
            <mxRectangle width="140" height="48" as="alternateBounds" />
          </mxGeometry>
        </mxCell>
        <mxCell id="3D6HXVsp6RhquHempZrH-78" value="" style="shape=tableRow;horizontal=0;startSize=0;swimlaneHead=0;swimlaneBody=0;fillColor=none;collapsible=0;dropTarget=0;points=[[0,0.5],[1,0.5]];portConstraint=eastwest;top=0;left=0;right=0;bottom=0;" vertex="1" parent="3D6HXVsp6RhquHempZrH-68">
          <mxGeometry y="126" width="180" height="48" as="geometry" />
        </mxCell>
        <mxCell id="3D6HXVsp6RhquHempZrH-79" value="FK2" style="shape=partialRectangle;connectable=0;fillColor=none;top=0;left=0;bottom=0;right=0;editable=1;overflow=hidden;whiteSpace=wrap;html=1;" vertex="1" parent="3D6HXVsp6RhquHempZrH-78">
          <mxGeometry width="40" height="48" as="geometry">
            <mxRectangle width="40" height="48" as="alternateBounds" />
          </mxGeometry>
        </mxCell>
        <mxCell id="3D6HXVsp6RhquHempZrH-80" value="customer_key" style="shape=partialRectangle;connectable=0;fillColor=none;top=0;left=0;bottom=0;right=0;align=left;spacingLeft=6;overflow=hidden;whiteSpace=wrap;html=1;fontSize=16;" vertex="1" parent="3D6HXVsp6RhquHempZrH-78">
          <mxGeometry x="40" width="140" height="48" as="geometry">
            <mxRectangle width="140" height="48" as="alternateBounds" />
          </mxGeometry>
        </mxCell>
        <mxCell id="3D6HXVsp6RhquHempZrH-81" style="shape=tableRow;horizontal=0;startSize=0;swimlaneHead=0;swimlaneBody=0;fillColor=none;collapsible=0;dropTarget=0;points=[[0,0.5],[1,0.5]];portConstraint=eastwest;top=0;left=0;right=0;bottom=0;" vertex="1" parent="3D6HXVsp6RhquHempZrH-68">
          <mxGeometry y="174" width="180" height="48" as="geometry" />
        </mxCell>
        <mxCell id="3D6HXVsp6RhquHempZrH-82" style="shape=partialRectangle;connectable=0;fillColor=none;top=0;left=0;bottom=0;right=0;editable=1;overflow=hidden;whiteSpace=wrap;html=1;" vertex="1" parent="3D6HXVsp6RhquHempZrH-81">
          <mxGeometry width="40" height="48" as="geometry">
            <mxRectangle width="40" height="48" as="alternateBounds" />
          </mxGeometry>
        </mxCell>
        <mxCell id="3D6HXVsp6RhquHempZrH-83" value="order_date" style="shape=partialRectangle;connectable=0;fillColor=none;top=0;left=0;bottom=0;right=0;align=left;spacingLeft=6;overflow=hidden;whiteSpace=wrap;html=1;fontSize=16;" vertex="1" parent="3D6HXVsp6RhquHempZrH-81">
          <mxGeometry x="40" width="140" height="48" as="geometry">
            <mxRectangle width="140" height="48" as="alternateBounds" />
          </mxGeometry>
        </mxCell>
        <mxCell id="3D6HXVsp6RhquHempZrH-84" style="shape=tableRow;horizontal=0;startSize=0;swimlaneHead=0;swimlaneBody=0;fillColor=none;collapsible=0;dropTarget=0;points=[[0,0.5],[1,0.5]];portConstraint=eastwest;top=0;left=0;right=0;bottom=0;" vertex="1" parent="3D6HXVsp6RhquHempZrH-68">
          <mxGeometry y="222" width="180" height="48" as="geometry" />
        </mxCell>
        <mxCell id="3D6HXVsp6RhquHempZrH-85" style="shape=partialRectangle;connectable=0;fillColor=none;top=0;left=0;bottom=0;right=0;editable=1;overflow=hidden;whiteSpace=wrap;html=1;" vertex="1" parent="3D6HXVsp6RhquHempZrH-84">
          <mxGeometry width="40" height="48" as="geometry">
            <mxRectangle width="40" height="48" as="alternateBounds" />
          </mxGeometry>
        </mxCell>
        <mxCell id="3D6HXVsp6RhquHempZrH-86" value="shipping_date" style="shape=partialRectangle;connectable=0;fillColor=none;top=0;left=0;bottom=0;right=0;align=left;spacingLeft=6;overflow=hidden;whiteSpace=wrap;html=1;fontSize=16;" vertex="1" parent="3D6HXVsp6RhquHempZrH-84">
          <mxGeometry x="40" width="140" height="48" as="geometry">
            <mxRectangle width="140" height="48" as="alternateBounds" />
          </mxGeometry>
        </mxCell>
        <mxCell id="3D6HXVsp6RhquHempZrH-87" style="shape=tableRow;horizontal=0;startSize=0;swimlaneHead=0;swimlaneBody=0;fillColor=none;collapsible=0;dropTarget=0;points=[[0,0.5],[1,0.5]];portConstraint=eastwest;top=0;left=0;right=0;bottom=0;" vertex="1" parent="3D6HXVsp6RhquHempZrH-68">
          <mxGeometry y="270" width="180" height="48" as="geometry" />
        </mxCell>
        <mxCell id="3D6HXVsp6RhquHempZrH-88" style="shape=partialRectangle;connectable=0;fillColor=none;top=0;left=0;bottom=0;right=0;editable=1;overflow=hidden;whiteSpace=wrap;html=1;" vertex="1" parent="3D6HXVsp6RhquHempZrH-87">
          <mxGeometry width="40" height="48" as="geometry">
            <mxRectangle width="40" height="48" as="alternateBounds" />
          </mxGeometry>
        </mxCell>
        <mxCell id="3D6HXVsp6RhquHempZrH-89" value="due_date" style="shape=partialRectangle;connectable=0;fillColor=none;top=0;left=0;bottom=0;right=0;align=left;spacingLeft=6;overflow=hidden;whiteSpace=wrap;html=1;fontSize=16;" vertex="1" parent="3D6HXVsp6RhquHempZrH-87">
          <mxGeometry x="40" width="140" height="48" as="geometry">
            <mxRectangle width="140" height="48" as="alternateBounds" />
          </mxGeometry>
        </mxCell>
        <mxCell id="3D6HXVsp6RhquHempZrH-90" style="shape=tableRow;horizontal=0;startSize=0;swimlaneHead=0;swimlaneBody=0;fillColor=none;collapsible=0;dropTarget=0;points=[[0,0.5],[1,0.5]];portConstraint=eastwest;top=0;left=0;right=0;bottom=0;" vertex="1" parent="3D6HXVsp6RhquHempZrH-68">
          <mxGeometry y="318" width="180" height="48" as="geometry" />
        </mxCell>
        <mxCell id="3D6HXVsp6RhquHempZrH-91" style="shape=partialRectangle;connectable=0;fillColor=none;top=0;left=0;bottom=0;right=0;editable=1;overflow=hidden;whiteSpace=wrap;html=1;" vertex="1" parent="3D6HXVsp6RhquHempZrH-90">
          <mxGeometry width="40" height="48" as="geometry">
            <mxRectangle width="40" height="48" as="alternateBounds" />
          </mxGeometry>
        </mxCell>
        <mxCell id="3D6HXVsp6RhquHempZrH-92" value="sales_amount" style="shape=partialRectangle;connectable=0;fillColor=none;top=0;left=0;bottom=0;right=0;align=left;spacingLeft=6;overflow=hidden;whiteSpace=wrap;html=1;fontSize=16;" vertex="1" parent="3D6HXVsp6RhquHempZrH-90">
          <mxGeometry x="40" width="140" height="48" as="geometry">
            <mxRectangle width="140" height="48" as="alternateBounds" />
          </mxGeometry>
        </mxCell>
        <mxCell id="3D6HXVsp6RhquHempZrH-93" style="shape=tableRow;horizontal=0;startSize=0;swimlaneHead=0;swimlaneBody=0;fillColor=none;collapsible=0;dropTarget=0;points=[[0,0.5],[1,0.5]];portConstraint=eastwest;top=0;left=0;right=0;bottom=0;" vertex="1" parent="3D6HXVsp6RhquHempZrH-68">
          <mxGeometry y="366" width="180" height="48" as="geometry" />
        </mxCell>
        <mxCell id="3D6HXVsp6RhquHempZrH-94" style="shape=partialRectangle;connectable=0;fillColor=none;top=0;left=0;bottom=0;right=0;editable=1;overflow=hidden;whiteSpace=wrap;html=1;" vertex="1" parent="3D6HXVsp6RhquHempZrH-93">
          <mxGeometry width="40" height="48" as="geometry">
            <mxRectangle width="40" height="48" as="alternateBounds" />
          </mxGeometry>
        </mxCell>
        <mxCell id="3D6HXVsp6RhquHempZrH-95" value="quantity" style="shape=partialRectangle;connectable=0;fillColor=none;top=0;left=0;bottom=0;right=0;align=left;spacingLeft=6;overflow=hidden;whiteSpace=wrap;html=1;fontSize=16;" vertex="1" parent="3D6HXVsp6RhquHempZrH-93">
          <mxGeometry x="40" width="140" height="48" as="geometry">
            <mxRectangle width="140" height="48" as="alternateBounds" />
          </mxGeometry>
        </mxCell>
        <mxCell id="3D6HXVsp6RhquHempZrH-96" style="shape=tableRow;horizontal=0;startSize=0;swimlaneHead=0;swimlaneBody=0;fillColor=none;collapsible=0;dropTarget=0;points=[[0,0.5],[1,0.5]];portConstraint=eastwest;top=0;left=0;right=0;bottom=0;" vertex="1" parent="3D6HXVsp6RhquHempZrH-68">
          <mxGeometry y="414" width="180" height="48" as="geometry" />
        </mxCell>
        <mxCell id="3D6HXVsp6RhquHempZrH-97" style="shape=partialRectangle;connectable=0;fillColor=none;top=0;left=0;bottom=0;right=0;editable=1;overflow=hidden;whiteSpace=wrap;html=1;" vertex="1" parent="3D6HXVsp6RhquHempZrH-96">
          <mxGeometry width="40" height="48" as="geometry">
            <mxRectangle width="40" height="48" as="alternateBounds" />
          </mxGeometry>
        </mxCell>
        <mxCell id="3D6HXVsp6RhquHempZrH-98" value="price" style="shape=partialRectangle;connectable=0;fillColor=none;top=0;left=0;bottom=0;right=0;align=left;spacingLeft=6;overflow=hidden;whiteSpace=wrap;html=1;fontSize=16;" vertex="1" parent="3D6HXVsp6RhquHempZrH-96">
          <mxGeometry x="40" width="140" height="48" as="geometry">
            <mxRectangle width="140" height="48" as="alternateBounds" />
          </mxGeometry>
        </mxCell>
        <mxCell id="3D6HXVsp6RhquHempZrH-102" value="" style="edgeStyle=entityRelationEdgeStyle;fontSize=12;html=1;endArrow=ERzeroToMany;startArrow=ERmandOne;rounded=0;entryX=0;entryY=0.5;entryDx=0;entryDy=0;" edge="1" parent="1" source="3D6HXVsp6RhquHempZrH-3" target="3D6HXVsp6RhquHempZrH-78">
          <mxGeometry width="100" height="100" relative="1" as="geometry">
            <mxPoint x="270" y="550" as="sourcePoint" />
            <mxPoint x="370" y="450" as="targetPoint" />
          </mxGeometry>
        </mxCell>
        <mxCell id="3D6HXVsp6RhquHempZrH-103" value="" style="edgeStyle=entityRelationEdgeStyle;fontSize=12;html=1;endArrow=ERzeroToMany;startArrow=ERmandOne;rounded=0;exitX=0;exitY=0.5;exitDx=0;exitDy=0;entryX=1;entryY=0.5;entryDx=0;entryDy=0;" edge="1" parent="1" source="3D6HXVsp6RhquHempZrH-35" target="3D6HXVsp6RhquHempZrH-75">
          <mxGeometry width="100" height="100" relative="1" as="geometry">
            <mxPoint x="720" y="460" as="sourcePoint" />
            <mxPoint x="609.9999999999995" y="503.8879999999999" as="targetPoint" />
          </mxGeometry>
        </mxCell>
        <mxCell id="3D6HXVsp6RhquHempZrH-104" value="&lt;h1 style=&quot;margin-top: 0px;&quot;&gt;&lt;u&gt;Sales Calculation&lt;/u&gt;&lt;/h1&gt;&lt;p&gt;&lt;b&gt;&lt;font style=&quot;font-size: 15px;&quot;&gt;sales_amount = quantity * price&lt;/font&gt;&lt;/b&gt;&lt;/p&gt;" style="text;html=1;whiteSpace=wrap;overflow=hidden;rounded=0;align=center;" vertex="1" parent="1">
          <mxGeometry x="500" y="1000" width="300" height="120" as="geometry" />
        </mxCell>
        <mxCell id="3D6HXVsp6RhquHempZrH-105" value="" style="endArrow=none;dashed=1;html=1;dashPattern=1 3;strokeWidth=2;rounded=0;" edge="1" parent="1" source="3D6HXVsp6RhquHempZrH-104" target="3D6HXVsp6RhquHempZrH-90">
          <mxGeometry width="50" height="50" relative="1" as="geometry">
            <mxPoint x="430" y="800" as="sourcePoint" />
            <mxPoint x="480" y="750" as="targetPoint" />
          </mxGeometry>
        </mxCell>
      </root>
    </mxGraphModel>
  </diagram>
</mxfile>
